<svg id="图层_1" data-name="图层 1" xmlns="http://www.w3.org/2000/svg" xmlns:xlink="http://www.w3.org/1999/xlink" viewBox="0 0 839.91 687.37"><defs><style>.cls-1{fill:url(#未命名的渐变_31);}.cls-2,.cls-3{fill:none;stroke-linecap:round;stroke-miterlimit:10;stroke-width:0.5px;}.cls-2{stroke:#003737;}.cls-3{stroke:#003b37;}.cls-4{fill:url(#新建渐变色板_1);}.cls-5{fill:url(#未命名的渐变_19);}.cls-6{fill:url(#未命名的渐变_18);}.cls-7{fill:url(#新建渐变色板_1-2);}.cls-8{fill:url(#新建渐变色板_1-3);}.cls-9{fill:url(#新建渐变色板_1-4);}.cls-10{fill:url(#新建渐变色板_1-5);}.cls-11{fill:url(#新建渐变色板_1-6);}.cls-12{fill:url(#新建渐变色板_1-7);}.cls-13{fill:url(#新建渐变色板_1-8);}.cls-14{fill:url(#未命名的渐变_20);}.cls-15,.cls-21{fill:#fff;}.cls-16{fill:url(#未命名的渐变_132);}.cls-17,.cls-22{opacity:0.41;}.cls-17{fill:url(#未命名的渐变_136);}.cls-18{fill:#dfeaf2;}.cls-19,.cls-20{fill:#333;}.cls-19{opacity:0.35;}.cls-20{opacity:0.39;}.cls-21{opacity:0.72;}.cls-22{fill:url(#未命名的渐变_121);}</style><linearGradient id="未命名的渐变_31" x1="383.88" y1="686.46" x2="383.88" y2="4.98" gradientUnits="userSpaceOnUse"><stop offset="0" stop-color="#fff"/><stop offset="0.74" stop-color="#e8f0f6"/><stop offset="1" stop-color="#dfeaf2"/></linearGradient><linearGradient id="新建渐变色板_1" x1="670.98" y1="305.1" x2="670.98" y2="265.07" gradientUnits="userSpaceOnUse"><stop offset="0" stop-color="#85dcd8"/><stop offset="0.05" stop-color="#81d0c8"/><stop offset="0.21" stop-color="#74b09c"/><stop offset="0.36" stop-color="#6b9679"/><stop offset="0.51" stop-color="#648360"/><stop offset="0.64" stop-color="#5f7850"/><stop offset="0.74" stop-color="#5e744b"/></linearGradient><linearGradient id="未命名的渐变_19" x1="433.41" y1="781.55" x2="493.93" y2="781.55" gradientUnits="userSpaceOnUse"><stop offset="0" stop-color="#85dcd8"/><stop offset="0.05" stop-color="#7ec9bf"/><stop offset="0.14" stop-color="#74af9b"/><stop offset="0.24" stop-color="#6c9a7e"/><stop offset="0.34" stop-color="#668967"/><stop offset="0.45" stop-color="#617d57"/><stop offset="0.57" stop-color="#5f764e"/><stop offset="0.74" stop-color="#5e744b"/></linearGradient><linearGradient id="未命名的渐变_18" x1="705.04" y1="655.62" x2="743.38" y2="655.62" gradientUnits="userSpaceOnUse"><stop offset="0" stop-color="#85dcd8"/><stop offset="0.01" stop-color="#83d8d2"/><stop offset="0.13" stop-color="#78b9a9"/><stop offset="0.24" stop-color="#6fa087"/><stop offset="0.36" stop-color="#678d6d"/><stop offset="0.48" stop-color="#627f5a"/><stop offset="0.61" stop-color="#5f774f"/><stop offset="0.74" stop-color="#5e744b"/></linearGradient><linearGradient id="新建渐变色板_1-2" x1="657.93" y1="588.99" x2="713.94" y2="588.99" xlink:href="#新建渐变色板_1"/><linearGradient id="新建渐变色板_1-3" x1="352.41" y1="746.06" x2="336.66" y2="727.29" xlink:href="#新建渐变色板_1"/><linearGradient id="新建渐变色板_1-4" x1="731.6" y1="477.67" x2="802.95" y2="477.67" xlink:href="#新建渐变色板_1"/><linearGradient id="新建渐变色板_1-5" x1="603.92" y1="521.42" x2="666.84" y2="521.42" xlink:href="#新建渐变色板_1"/><linearGradient id="新建渐变色板_1-6" x1="586.61" y1="484.66" x2="666.31" y2="484.66" xlink:href="#新建渐变色板_1"/><linearGradient id="新建渐变色板_1-7" x1="508.08" y1="362.64" x2="508.08" y2="311.5" xlink:href="#新建渐变色板_1"/><linearGradient id="新建渐变色板_1-8" x1="706.91" y1="319.57" x2="722.84" y2="319.57" xlink:href="#新建渐变色板_1"/><linearGradient id="未命名的渐变_20" x1="128.54" y1="587.33" x2="194" y2="587.33" gradientUnits="userSpaceOnUse"><stop offset="0" stop-color="#85dcd8"/><stop offset="0.03" stop-color="#7fcbc1"/><stop offset="0.07" stop-color="#76b4a2"/><stop offset="0.12" stop-color="#6ea086"/><stop offset="0.17" stop-color="#689070"/><stop offset="0.24" stop-color="#64835f"/><stop offset="0.32" stop-color="#607a54"/><stop offset="0.43" stop-color="#5f754d"/><stop offset="0.74" stop-color="#5e744b"/></linearGradient><linearGradient id="未命名的渐变_132" x1="673.66" y1="819.41" x2="233.31" y2="449.92" gradientUnits="userSpaceOnUse"><stop offset="0.22" stop-color="#fff"/><stop offset="0.28" stop-color="#e2eaf0"/><stop offset="0.42" stop-color="#a6bfcf"/><stop offset="0.56" stop-color="#749ab4"/><stop offset="0.69" stop-color="#4c7e9f"/><stop offset="0.81" stop-color="#306a90"/><stop offset="0.91" stop-color="#1f5d87"/><stop offset="0.99" stop-color="#195984"/></linearGradient><linearGradient id="未命名的渐变_136" x1="765.84" y1="192.73" x2="839.91" y2="192.73" gradientUnits="userSpaceOnUse"><stop offset="0.11" stop-color="#b8d8ed"/><stop offset="0.33" stop-color="#a1cce9"/><stop offset="0.78" stop-color="#77b6e3"/></linearGradient><linearGradient id="未命名的渐变_121" x1="270.68" y1="562.76" x2="854.74" y2="562.76" gradientUnits="userSpaceOnUse"><stop offset="0.11" stop-color="#fff" stop-opacity="0"/><stop offset="0.33" stop-color="#d0e6f5" stop-opacity="0.35"/><stop offset="0.64" stop-color="#90c4e8" stop-opacity="0.81"/><stop offset="0.78" stop-color="#77b6e3"/></linearGradient></defs><title>节气3</title><circle class="cls-1" cx="383.88" cy="345.72" r="340.74"/><path class="cls-2" d="M711.62,250a149.51,149.51,0,0,1-6.3,36.74c-15.1,49.64-51.65,76-63.35,84.16-37.23,26-53.31,14.94-112.53,36.88-23.66,8.76-75,28.34-119.15,71.86-18.78,18.52-52.56,57.43-71.87,122.94" transform="translate(-128.54 -181.38)"/><path class="cls-3" d="M826.62,404a342.15,342.15,0,0,1-48.33,88.72C721,568.4,646.71,600.1,612.81,611.88c-59.63,20.72-71.81,6.73-126.71,22.7-47.81,13.9-109.7,45.18-173,121" transform="translate(-128.54 -181.38)"/><path class="cls-3" d="M779.24,319.67a318.71,318.71,0,0,1-29.88,68C705,463.25,640.49,500.88,615.92,514.83c-77.07,43.74-106.27,25.84-154.12,63.09-50.48,39.3-70.52,100.14-78.94,152.17" transform="translate(-128.54 -181.38)"/><path class="cls-4" d="M706.51,265.79c-1.69-2.84-18.69,3.21-30.5,8.82-21.55,10.24-40.7,30.49-40.7,30.49s27.11-5.58,46.61-17.69C693.74,280.08,708.22,268.68,706.51,265.79Z" transform="translate(-128.54 -181.38)"/><path class="cls-5" d="M493.62,754.4C491.33,752,476.17,761.83,466,770c-18.61,14.93-32.57,39-32.57,39s25.09-11.68,41.28-27.95C484.49,771.25,496,756.81,493.62,754.4Z" transform="translate(-128.54 -181.38)"/><path class="cls-6" d="M743,639.43c-2.12-2.4-12.25,2.68-18.84,7.38-12,8.59-19.09,25.62-19.09,25.62s17.47-4.66,27.43-14.82C738.5,651.45,745.12,641.87,743,639.43Z" transform="translate(-128.54 -181.38)"/><path class="cls-7" d="M713.55,559.47c-2.48-2.19-16.79,8.81-26.3,17.79-17.34,16.38-29.32,41.54-29.32,41.54s24.07-13.66,38.9-31.19C705.81,577,716.07,561.69,713.55,559.47Z" transform="translate(-128.54 -181.38)"/><path class="cls-8" d="M367.51,703.4c-2.81-1.74-15.1,11.48-23,21.91-14.39,19-22,45.83-22,45.83s21.48-17.47,33.19-37.21C362.78,722,370.36,705.17,367.51,703.4Z" transform="translate(-128.54 -181.38)"/><path class="cls-9" d="M802.81,458.38c-1.69-2.84-18.7,3.22-30.51,8.82-21.54,10.24-40.7,30.49-40.7,30.49s27.12-5.58,46.62-17.68C790,472.68,804.52,461.27,802.81,458.38Z" transform="translate(-128.54 -181.38)"/><path class="cls-10" d="M666.5,483.13c-2.47-1.83-18.28,13.29-28.9,25.14-19.37,21.62-33.68,51.58-33.68,51.58S630.2,539.68,647,517.38C657.16,503.87,669,485,666.5,483.13Z" transform="translate(-128.54 -181.38)"/><path class="cls-11" d="M666.29,477.3c-.77-3.22-18.81-2.5-31.75-.67-23.62,3.35-47.93,17-47.93,17s27.54,2.75,49.76-3C649.84,487.14,667.06,480.57,666.29,477.3Z" transform="translate(-128.54 -181.38)"/><path class="cls-12" d="M539.75,311.94c-2.14-2.52-17.89,6.3-28.59,13.81-19.52,13.71-35,36.89-35,36.89s25.79-10.05,43-25.26C529.56,328.17,541.92,314.5,539.75,311.94Z" transform="translate(-128.54 -181.38)"/><path class="cls-13" d="M708.89,267.12c-2.74.52-2.26,23.84-.8,40.76,2.68,30.88,14.07,64.15,14.07,64.15s2.53-35-2.18-64.48C717.12,289.72,711.67,266.6,708.89,267.12Z" transform="translate(-128.54 -181.38)"/><path class="cls-14" d="M193.66,550.77c-2.54-2.08-19,12.08-30,23.32-20.15,20.52-35.1,50-35.1,50s27.27-18.46,44.76-39.89C183.89,571.22,196.24,552.87,193.66,550.77Z" transform="translate(-128.54 -181.38)"/><path class="cls-15" d="M270.2,447.91c-.61,4.2,9.38,5.87,22.82,17.1,12.15,10.14,18.54,20.93,22.63,27.83,4.75,8,8.45,14.25,10.46,23.45,3,13.58-.89,19.36,3,22.06,7.27,5.08,35.06-5.67,42-23.4,10.95-27.89-29.84-72.67-69-75.57C287.77,438.32,271,442.63,270.2,447.91Z" transform="translate(-128.54 -181.38)"/><path class="cls-16" d="M729.75,752.56c-39.54-4.24-73.27-8.21-94-15.8-42.9-15.73-75-36.4-129.81-71.62-22.7-14.59-41.05-27.21-53.29-35.8l0,.24a403.87,403.87,0,0,0,33.22,60.09C532.22,758.82,599,803.91,639,825.91c-6.43-2.37-24.5-11.08-35.87-16.06C495.6,762.8,433.69,690,419.42,672.64c-13.63-16.58-28.42-35.26-45.87-66.83l-3-5.27c1.26,9.31-1.18,20.64-7.88,37.35-9.11,22.72-26.89,34.93-42.55,45.39-25.22,16.84-32.65,12.7-55.79,26.48-28.72,17.08-44.59,39.69-53.9,53a211.79,211.79,0,0,0-35.94,90.78l3-20c.26-11.31.92-28.82,2.83-50.12,5.32-59.17,11.66-122.9,47.28-184.4,19.64-33.9,38.74-50.82,52-60.52a171.51,171.51,0,0,1,33.1-18.91l-1.89-4.73a117.57,117.57,0,0,0-9.46-20.8c-5.86-10.15-14.61-25.31-32.15-35-5.49-3-18.53-11.59-33.09-12.45h0a84.61,84.61,0,0,1,26.47-17c23.93-9.62,45.63-5.24,56.74-2.84,8.55,1.84,20.32,4.51,33.1,13.24A82.48,82.48,0,0,1,377,466.42h0c10.38-11.51,28.48-21.83,53.12-34.84,17.59-9.28,34.4-14.5,55.79-18.91,21.14-4.35,85.92-16,186.29-1.89,16.6,2.33,40.83,6.3,70,13.24l-3-.32c-14.87,1.74-37.15,4.79-64,10.33-30.87,6.38-70.79,14.85-118.08,36.15-35.52,16-54.39,29.84-60,34.07a274.63,274.63,0,0,0-39.36,36.15h0c16.55,25.48,34.06,48.11,59.8,75.25A534.53,534.53,0,0,0,729.75,752.56" transform="translate(-128.54 -181.38)"/><circle class="cls-17" cx="802.88" cy="192.73" r="37.04"/><circle class="cls-18" cx="737.26" cy="51.85" r="51.85"/><path class="cls-19" d="M951.84,343.39c1.13,3.51,6,20-2.8,37.45-10.35,20.51-31.2,25.74-34.14,26.43a37,37,0,0,0,37.22-63.88" transform="translate(-128.54 -181.38)"/><path class="cls-20" d="M894.23,191.24c1.58,4.86,8.37,27.68-3.89,51.86-14.41,28.41-43.45,35.66-47.54,36.61a51.36,51.36,0,0,0,51.82-88.47" transform="translate(-128.54 -181.38)"/><ellipse class="cls-21" cx="375.54" cy="322.25" rx="46.92" ry="28.21" transform="translate(-247.82 135.41) rotate(-40)"/><path class="cls-22" d="M274.69,767c60.8-22.39,190.24-79.43,300.08-211.75,96-115.59,131.38-233.74,145.43-296.08l.22-2.42c107.3,81.78,160,223.35,122.05,361.42C792.61,799.66,605.09,906.34,423.63,856.48a339.22,339.22,0,0,1-152.95-89.85" transform="translate(-128.54 -181.38)"/></svg>